<svg xmlns="http://www.w3.org/2000/svg" viewBox="0 0 160 56" fill="none">
  <!-- Simplified fleur-de-lis -->
  <path d="M22,8 C22,8 16,16 16,22 C16,28 20,30 22,30 C24,30 28,28 28,22 C28,16 22,8 22,8Z" fill="white"/>
  <path d="M14,22 C10,22 6,24 6,28 C6,32 10,34 14,32 C18,30 20,26 20,26 Z" fill="white"/>
  <path d="M30,22 C34,22 38,24 38,28 C38,32 34,34 30,32 C26,30 24,26 24,26 Z" fill="white"/>
  <rect x="19" y="30" width="6" height="14" rx="2" fill="white"/>
  <rect x="12" y="40" width="20" height="3" rx="1.5" fill="white"/>
  <!-- PARIS text -->
  <text x="50" y="36" fill="white" font-family="Arial Black,Arial,sans-serif" font-weight="900" font-size="24" letter-spacing="3">PARIS</text>
</svg>
